<svg width="155" height="40" viewBox="0 0 155 40" fill="none" xmlns="http://www.w3.org/2000/svg">
<g clip-path="url(#clip0_10_192)">
<path d="M19 11H5C3.89 11 3 11.9 3 13V27C3 28.1 3.89 29 5 29H19C20.11 29 21 28.1 21 27V13C21 11.9 20.11 11 19 11ZM10 25L5 20L6.41 18.59L10 22.17L17.59 14.58L19 16L10 25Z" fill="#111111"/>
</g>
<path d="M44.544 14.928V26H43.088V17.744L39.408 26H38.384L34.688 17.728V26H33.232V14.928H34.8L38.896 24.08L42.992 14.928H44.544ZM50.8373 26.144C50.0159 26.144 49.2693 25.9573 48.5973 25.584C47.9359 25.2107 47.4133 24.6827 47.0293 24C46.6559 23.3067 46.4693 22.5067 46.4693 21.6C46.4693 20.704 46.6613 19.9147 47.0453 19.232C47.4399 18.5387 47.9733 18.0107 48.6453 17.648C49.3173 17.2747 50.0693 17.088 50.9013 17.088C51.7333 17.088 52.4853 17.2747 53.1573 17.648C53.8293 18.0107 54.3573 18.5333 54.7413 19.216C55.1359 19.8987 55.3333 20.6933 55.3333 21.6C55.3333 22.5067 55.1306 23.3067 54.7253 24C54.3306 24.6827 53.7919 25.2107 53.1093 25.584C52.4266 25.9573 51.6693 26.144 50.8373 26.144ZM50.8373 24.864C51.3599 24.864 51.8506 24.7413 52.3093 24.496C52.7679 24.2507 53.1359 23.8827 53.4133 23.392C53.7013 22.9013 53.8453 22.304 53.8453 21.6C53.8453 20.896 53.7066 20.2987 53.4293 19.808C53.1519 19.3173 52.7893 18.9547 52.3413 18.72C51.8933 18.4747 51.4079 18.352 50.8853 18.352C50.3519 18.352 49.8613 18.4747 49.4133 18.72C48.9759 18.9547 48.6239 19.3173 48.3573 19.808C48.0906 20.2987 47.9573 20.896 47.9573 21.6C47.9573 22.3147 48.0853 22.9173 48.3413 23.408C48.6079 23.8987 48.9599 24.2667 49.3973 24.512C49.8346 24.7467 50.3146 24.864 50.8373 24.864ZM60.3516 26.144C59.6796 26.144 59.077 26.032 58.5436 25.808C58.0103 25.5733 57.589 25.2533 57.2796 24.848C56.9703 24.432 56.7996 23.9573 56.7676 23.424H58.2716C58.3143 23.8613 58.517 24.2187 58.8796 24.496C59.253 24.7733 59.7383 24.912 60.3356 24.912C60.8903 24.912 61.3276 24.7893 61.6476 24.544C61.9676 24.2987 62.1276 23.9893 62.1276 23.616C62.1276 23.232 61.957 22.9493 61.6156 22.768C61.2743 22.576 60.7463 22.3893 60.0316 22.208C59.381 22.0373 58.8476 21.8667 58.4316 21.696C58.0263 21.5147 57.6743 21.2533 57.3756 20.912C57.0876 20.56 56.9436 20.1013 56.9436 19.536C56.9436 19.088 57.077 18.6773 57.3436 18.304C57.6103 17.9307 57.989 17.6373 58.4796 17.424C58.9703 17.2 59.5303 17.088 60.1596 17.088C61.1303 17.088 61.9143 17.3333 62.5116 17.824C63.109 18.3147 63.429 18.9867 63.4716 19.84H62.0156C61.9836 19.3813 61.797 19.0133 61.4556 18.736C61.125 18.4587 60.677 18.32 60.1116 18.32C59.589 18.32 59.173 18.432 58.8636 18.656C58.5543 18.88 58.3996 19.1733 58.3996 19.536C58.3996 19.824 58.4903 20.064 58.6716 20.256C58.8636 20.4373 59.0983 20.5867 59.3756 20.704C59.6636 20.8107 60.0583 20.9333 60.5596 21.072C61.189 21.2427 61.701 21.4133 62.0956 21.584C62.4903 21.744 62.8263 21.9893 63.1036 22.32C63.3916 22.6507 63.541 23.0827 63.5516 23.616C63.5516 24.096 63.4183 24.528 63.1516 24.912C62.885 25.296 62.5063 25.6 62.0156 25.824C61.5356 26.0373 60.981 26.144 60.3516 26.144ZM67.383 18.432V23.6C67.383 24.0267 67.4737 24.3307 67.655 24.512C67.8363 24.6827 68.151 24.768 68.599 24.768H69.671V26H68.359C67.5483 26 66.9403 25.8133 66.535 25.44C66.1297 25.0667 65.927 24.4533 65.927 23.6V18.432H64.791V17.232H65.927V15.024H67.383V17.232H69.671V18.432H67.383ZM72.8911 18.656C73.1471 18.1547 73.5098 17.7653 73.9791 17.488C74.4591 17.2107 75.0405 17.072 75.7231 17.072V18.576H75.3391C73.7071 18.576 72.8911 19.4613 72.8911 21.232V26H71.4351V17.232H72.8911V18.656ZM76.8599 21.584C76.8599 20.688 77.0412 19.904 77.4039 19.232C77.7665 18.5493 78.2625 18.0213 78.8919 17.648C79.5319 17.2747 80.2412 17.088 81.0199 17.088C81.7879 17.088 82.4545 17.2533 83.0199 17.584C83.5852 17.9147 84.0065 18.3307 84.2839 18.832V17.232H85.7559V26H84.2839V24.368C83.9959 24.88 83.5639 25.3067 82.9879 25.648C82.4225 25.9787 81.7612 26.144 81.0039 26.144C80.2252 26.144 79.5212 25.952 78.8919 25.568C78.2625 25.184 77.7665 24.6453 77.4039 23.952C77.0412 23.2587 76.8599 22.4693 76.8599 21.584ZM84.2839 21.6C84.2839 20.9387 84.1505 20.3627 83.8839 19.872C83.6172 19.3813 83.2545 19.008 82.7959 18.752C82.3479 18.4853 81.8519 18.352 81.3079 18.352C80.7639 18.352 80.2679 18.48 79.8199 18.736C79.3719 18.992 79.0145 19.3653 78.7479 19.856C78.4812 20.3467 78.3479 20.9227 78.3479 21.584C78.3479 22.256 78.4812 22.8427 78.7479 23.344C79.0145 23.8347 79.3719 24.2133 79.8199 24.48C80.2679 24.736 80.7639 24.864 81.3079 24.864C81.8519 24.864 82.3479 24.736 82.7959 24.48C83.2545 24.2133 83.6172 23.8347 83.8839 23.344C84.1505 22.8427 84.2839 22.2613 84.2839 21.6ZM89.6724 18.656C89.9284 18.1547 90.291 17.7653 90.7604 17.488C91.2404 17.2107 91.8217 17.072 92.5044 17.072V18.576H92.1204C90.4884 18.576 89.6724 19.4613 89.6724 21.232V26H88.2164V17.232H89.6724V18.656ZM101.555 26.144C100.883 26.144 100.28 26.032 99.7468 25.808C99.2134 25.5733 98.7921 25.2533 98.4828 24.848C98.1734 24.432 98.0028 23.9573 97.9708 23.424H99.4748C99.5174 23.8613 99.7201 24.2187 100.083 24.496C100.456 24.7733 100.941 24.912 101.539 24.912C102.093 24.912 102.531 24.7893 102.851 24.544C103.171 24.2987 103.331 23.9893 103.331 23.616C103.331 23.232 103.16 22.9493 102.819 22.768C102.477 22.576 101.949 22.3893 101.235 22.208C100.584 22.0373 100.051 21.8667 99.6348 21.696C99.2294 21.5147 98.8774 21.2533 98.5788 20.912C98.2908 20.56 98.1468 20.1013 98.1468 19.536C98.1468 19.088 98.2801 18.6773 98.5468 18.304C98.8134 17.9307 99.1921 17.6373 99.6828 17.424C100.173 17.2 100.733 17.088 101.363 17.088C102.333 17.088 103.117 17.3333 103.715 17.824C104.312 18.3147 104.632 18.9867 104.675 19.84H103.219C103.187 19.3813 103 19.0133 102.659 18.736C102.328 18.4587 101.88 18.32 101.315 18.32C100.792 18.32 100.376 18.432 100.067 18.656C99.7574 18.88 99.6028 19.1733 99.6028 19.536C99.6028 19.824 99.6934 20.064 99.8748 20.256C100.067 20.4373 100.301 20.5867 100.579 20.704C100.867 20.8107 101.261 20.9333 101.763 21.072C102.392 21.2427 102.904 21.4133 103.299 21.584C103.693 21.744 104.029 21.9893 104.307 22.32C104.595 22.6507 104.744 23.0827 104.755 23.616C104.755 24.096 104.621 24.528 104.355 24.912C104.088 25.296 103.709 25.6 103.219 25.824C102.739 26.0373 102.184 26.144 101.555 26.144ZM114.81 21.28C114.81 21.5573 114.794 21.8507 114.762 22.16H107.754C107.807 23.024 108.101 23.7013 108.634 24.192C109.178 24.672 109.834 24.912 110.602 24.912C111.231 24.912 111.754 24.768 112.17 24.48C112.597 24.1813 112.895 23.7867 113.066 23.296H114.634C114.399 24.1387 113.93 24.8267 113.226 25.36C112.522 25.8827 111.647 26.144 110.602 26.144C109.77 26.144 109.023 25.9573 108.362 25.584C107.711 25.2107 107.199 24.6827 106.826 24C106.453 23.3067 106.266 22.5067 106.266 21.6C106.266 20.6933 106.447 19.8987 106.81 19.216C107.173 18.5333 107.679 18.0107 108.33 17.648C108.991 17.2747 109.749 17.088 110.602 17.088C111.434 17.088 112.17 17.2693 112.81 17.632C113.45 17.9947 113.941 18.496 114.282 19.136C114.634 19.7653 114.81 20.48 114.81 21.28ZM113.306 20.976C113.306 20.4213 113.183 19.9467 112.938 19.552C112.693 19.1467 112.357 18.8427 111.93 18.64C111.514 18.4267 111.05 18.32 110.538 18.32C109.802 18.32 109.173 18.5547 108.65 19.024C108.138 19.4933 107.845 20.144 107.77 20.976H113.306ZM121.004 17.072C122.071 17.072 122.935 17.3973 123.596 18.048C124.257 18.688 124.588 19.616 124.588 20.832V26H123.148V21.04C123.148 20.1653 122.929 19.4987 122.492 19.04C122.055 18.5707 121.457 18.336 120.7 18.336C119.932 18.336 119.319 18.576 118.86 19.056C118.412 19.536 118.188 20.2347 118.188 21.152V26H116.732V17.232H118.188V18.48C118.476 18.032 118.865 17.6853 119.356 17.44C119.857 17.1947 120.407 17.072 121.004 17.072ZM131.318 17.072C131.98 17.072 132.577 17.216 133.11 17.504C133.644 17.7813 134.06 18.2027 134.358 18.768C134.668 19.3333 134.822 20.0213 134.822 20.832V26H133.382V21.04C133.382 20.1653 133.164 19.4987 132.726 19.04C132.289 18.5707 131.692 18.336 130.934 18.336C130.166 18.336 129.553 18.576 129.094 19.056C128.646 19.536 128.422 20.2347 128.422 21.152V26H126.966V14.16H128.422V18.48C128.71 18.032 129.105 17.6853 129.606 17.44C130.118 17.1947 130.689 17.072 131.318 17.072ZM136.657 21.584C136.657 20.688 136.838 19.904 137.201 19.232C137.563 18.5493 138.059 18.0213 138.689 17.648C139.329 17.2747 140.038 17.088 140.817 17.088C141.585 17.088 142.251 17.2533 142.817 17.584C143.382 17.9147 143.803 18.3307 144.081 18.832V17.232H145.553V26H144.081V24.368C143.793 24.88 143.361 25.3067 142.785 25.648C142.219 25.9787 141.558 26.144 140.801 26.144C140.022 26.144 139.318 25.952 138.689 25.568C138.059 25.184 137.563 24.6453 137.201 23.952C136.838 23.2587 136.657 22.4693 136.657 21.584ZM144.081 21.6C144.081 20.9387 143.947 20.3627 143.681 19.872C143.414 19.3813 143.051 19.008 142.593 18.752C142.145 18.4853 141.649 18.352 141.105 18.352C140.561 18.352 140.065 18.48 139.617 18.736C139.169 18.992 138.811 19.3653 138.545 19.856C138.278 20.3467 138.145 20.9227 138.145 21.584C138.145 22.256 138.278 22.8427 138.545 23.344C138.811 23.8347 139.169 24.2133 139.617 24.48C140.065 24.736 140.561 24.864 141.105 24.864C141.649 24.864 142.145 24.736 142.593 24.48C143.051 24.2133 143.414 23.8347 143.681 23.344C143.947 22.8427 144.081 22.2613 144.081 21.6Z" fill="#333333"/>
<defs>
<clipPath id="clip0_10_192">
<rect width="24" height="24" fill="white" transform="translate(0 8)"/>
</clipPath>
</defs>
</svg>
